<mxfile host="65bd71144e">
    <diagram id="CPJIAm01KUvAuY9g8j0d" name="Page-1">
        <mxGraphModel dx="1099" dy="747" grid="0" gridSize="10" guides="1" tooltips="1" connect="1" arrows="1" fold="1" page="1" pageScale="1" pageWidth="1100" pageHeight="850" math="0" shadow="0">
            <root>
                <mxCell id="0"/>
                <mxCell id="1" parent="0"/>
                <mxCell id="2" value="&lt;font style=&quot;font-size: 22px;&quot;&gt;Header&lt;/font&gt;" style="rounded=0;whiteSpace=wrap;html=1;" parent="1" vertex="1">
                    <mxGeometry x="20" y="21" width="120" height="60" as="geometry"/>
                </mxCell>
                <mxCell id="5" value="&lt;font style=&quot;font-size: 22px;&quot;&gt;TopBar&lt;/font&gt;" style="rounded=0;whiteSpace=wrap;html=1;" parent="1" vertex="1">
                    <mxGeometry x="49" y="154" width="120" height="60" as="geometry"/>
                </mxCell>
                <mxCell id="9" value="" style="group" parent="1" vertex="1" connectable="0">
                    <mxGeometry x="792" y="27.5" width="141" height="141" as="geometry"/>
                </mxCell>
                <mxCell id="8" value="" style="ellipse;whiteSpace=wrap;html=1;aspect=fixed;fontSize=22;" parent="9" vertex="1">
                    <mxGeometry width="141" height="141" as="geometry"/>
                </mxCell>
                <mxCell id="6" value="App" style="ellipse;whiteSpace=wrap;html=1;aspect=fixed;fontSize=22;" parent="9" vertex="1">
                    <mxGeometry x="45" y="13" width="51" height="51" as="geometry"/>
                </mxCell>
                <mxCell id="7" value="Main" style="ellipse;whiteSpace=wrap;html=1;aspect=fixed;fontSize=22;" parent="9" vertex="1">
                    <mxGeometry x="45" y="76" width="51" height="51" as="geometry"/>
                </mxCell>
                <mxCell id="14" value="" style="shape=flexArrow;endArrow=classic;startArrow=classic;html=1;fontSize=22;" parent="9" edge="1">
                    <mxGeometry width="100" height="100" relative="1" as="geometry">
                        <mxPoint x="28" y="110.25" as="sourcePoint"/>
                        <mxPoint x="28" y="30.75" as="targetPoint"/>
                    </mxGeometry>
                </mxCell>
                <mxCell id="20" value="" style="group" parent="1" vertex="1" connectable="0">
                    <mxGeometry x="49" y="255" width="508" height="278" as="geometry"/>
                </mxCell>
                <mxCell id="17" value="" style="rounded=0;whiteSpace=wrap;html=1;fontSize=22;" parent="20" vertex="1">
                    <mxGeometry width="508" height="278" as="geometry"/>
                </mxCell>
                <mxCell id="18" value="" style="rounded=0;whiteSpace=wrap;html=1;fontSize=22;" parent="20" vertex="1">
                    <mxGeometry x="26" y="18" width="93" height="246" as="geometry"/>
                </mxCell>
                <mxCell id="3" value="&lt;font style=&quot;font-size: 22px;&quot;&gt;Pages&lt;/font&gt;" style="rounded=0;whiteSpace=wrap;html=1;" parent="20" vertex="1">
                    <mxGeometry x="34" y="25" width="77" height="40" as="geometry"/>
                </mxCell>
                <mxCell id="26" value="" style="ellipse;whiteSpace=wrap;html=1;fontSize=22;" parent="20" vertex="1">
                    <mxGeometry x="7" y="-44" width="76" height="48" as="geometry"/>
                </mxCell>
                <mxCell id="21" value="&lt;span style=&quot;&quot;&gt;Pages&lt;/span&gt;" style="text;html=1;align=center;verticalAlign=middle;resizable=0;points=[];autosize=1;strokeColor=none;fillColor=none;fontSize=22;" parent="20" vertex="1">
                    <mxGeometry x="5" y="-39" width="80" height="38" as="geometry"/>
                </mxCell>
                <mxCell id="27" value="" style="shape=cylinder3;whiteSpace=wrap;html=1;boundedLbl=1;backgroundOutline=1;size=15;" vertex="1" parent="1">
                    <mxGeometry x="488" y="71" width="60" height="80" as="geometry"/>
                </mxCell>
            </root>
        </mxGraphModel>
    </diagram>
</mxfile>